<?xml version="1.0" encoding="utf-8"?>
<!-- Generator: Adobe Illustrator 24.2.3, SVG Export Plug-In . SVG Version: 6.00 Build 0)  -->
<svg version="1.1" id="Слой_1" xmlns="http://www.w3.org/2000/svg" xmlns:xlink="http://www.w3.org/1999/xlink" x="0px" y="0px"
	 viewBox="0 0 600 600" style="enable-background:new 0 0 600 600;" xml:space="preserve">
<style type="text/css">
	.st0{fill:url(#SVGID_1_);}
	.st1{fill:#8CBF5C;}
	.st2{fill:#FFFFFF;}
</style>
<linearGradient id="SVGID_1_" gradientUnits="userSpaceOnUse" x1="65" y1="696.9" x2="537.2" y2="696.9" gradientTransform="matrix(1 0 0 1 0 -398)">
	<stop  offset="0" style="stop-color:#313131"/>
	<stop  offset="1" style="stop-color:#0E0F0F"/>
</linearGradient>
<path class="st0" d="M301.1,62.8L301.1,62.8c130.4,0,236.1,105.7,236.1,236.1l0,0c0,130.4-105.7,236.1-236.1,236.1l0,0
	C170.7,535,65,429.3,65,298.9l0,0C65,168.5,170.7,62.8,301.1,62.8z"/>
<path class="st1" d="M300,62.8C169,62.8,62.8,169,62.8,300S169,537.2,300,537.2S537.2,431,537.2,300S431,62.8,300,62.8z M300,511.1
	c-116.6,0-211.1-94.5-211.1-211.1S183.4,88.9,300,88.9S511.1,183.4,511.1,300S416.6,511.1,300,511.1z"/>
<path class="st2" d="M382.8,246.1l-52.9,78.4h52.9V246.1z M402.9,214.4v110.2h23.3v19.9h-23.3v41.2h-20.1v-41.2h-74.7V323
	l75.3-108.6H402.9z M285.9,365.6v20h-112V385c1-18.8,5.9-32.5,15.2-43.8c7.6-9.3,16.8-16.3,35.7-28.1c-0.1,0,6.7-4.2,8.6-5.4
	c10.2-6.5,16.7-11.6,21.8-17.5c6.5-7.5,9.9-15.7,9.9-25.3c0-18.7-13.2-31.6-32.3-31.6c-22.2,0-33.6,16.9-34.2,42.2v0.5h-19.9v-0.5
	l-0.2-4.6c0-33.9,22.1-56.5,55.3-56.5c32.5,0,53.6,19.7,53.6,50c0,15.5-5.6,28-16.2,39.2c-8.1,8.4-16.3,14.1-34.9,25.4
	c-0.2,0.1-0.5,0.3-0.8,0.5c-0.9,0.5-4.9,2.9-6.1,3.6c-8.9,5.3-14.3,9.1-19.1,13.7c-5.9,5.6-9.7,11.8-11.6,19h87.2V365.6z"/>
</svg>
